<svg width="194" height="194" viewBox="0 0 194 194" fill="none" xmlns="http://www.w3.org/2000/svg">
<path d="M188.115 130.273C179.944 152.648 163.825 171.235 142.831 182.49C121.836 193.745 97.4347 196.881 74.2766 191.301L79.7888 168.426C97.3293 172.653 115.812 170.277 131.713 161.752C147.615 153.227 159.824 139.149 166.013 122.202L188.115 130.273Z" fill="#FDBC87"/>
<path d="M0 97C-1.91061e-06 118.855 7.38042 140.069 20.9451 157.205C34.5098 174.341 53.4638 186.394 74.7352 191.41L80.136 168.509C64.0246 164.709 49.6683 155.58 39.3941 142.601C29.1198 129.622 23.5297 113.553 23.5297 97H0Z" fill="#FB8F37"/>
<path d="M97 0C112.597 1.85993e-07 127.964 3.76111 141.798 10.9644C155.632 18.1677 167.525 28.6007 176.469 41.3789C185.412 54.157 191.143 68.9034 193.174 84.3676C195.205 99.8318 193.477 115.558 188.137 130.212L166.029 122.156C170.074 111.056 171.383 99.1449 169.845 87.4319C168.306 75.7189 163.966 64.5496 157.192 54.8711C150.418 45.1926 141.41 37.2904 130.931 31.8344C120.453 26.3785 108.814 23.5297 97 23.5297V0Z" fill="#D0650D"/>
<path d="M97 0C84.2618 -1.51902e-07 71.6483 2.50898 59.8797 7.38369C48.1111 12.2584 37.4179 19.4034 28.4106 28.4106C19.4034 37.4179 12.2584 48.1111 7.38368 59.8797C2.50898 71.6483 -1.92342e-06 84.2618 0 97L23.5297 97C23.5297 87.3518 25.4301 77.798 29.1223 68.8841C32.8145 59.9703 38.2263 51.871 45.0487 45.0487C51.871 38.2263 59.9703 32.8145 68.8841 29.1223C77.798 25.4301 87.3517 23.5297 97 23.5297V0Z" fill="#A7510A"/>
<path d="M54.0653 105.818V87.6364H55.2301V105.818H54.0653ZM57.1548 93.6378C57.098 93.0649 56.8542 92.6198 56.4233 92.3026C55.9924 91.9853 55.4077 91.8267 54.669 91.8267C54.1671 91.8267 53.7434 91.8977 53.3977 92.0398C53.0521 92.1771 52.7869 92.3688 52.6023 92.6151C52.4223 92.8613 52.3324 93.1406 52.3324 93.4531C52.3229 93.7135 52.3774 93.9408 52.4957 94.1349C52.6188 94.3291 52.7869 94.4972 53 94.6392C53.2131 94.7765 53.4593 94.8973 53.7386 95.0014C54.018 95.1009 54.3163 95.1861 54.6335 95.2571L55.9403 95.5696C56.5748 95.7116 57.1572 95.901 57.6875 96.1378C58.2178 96.3745 58.6771 96.6657 59.0653 97.0114C59.4536 97.357 59.7543 97.7642 59.9673 98.233C60.1851 98.7017 60.2964 99.2391 60.3011 99.8452C60.2964 100.735 60.0691 101.507 59.6193 102.161C59.1742 102.809 58.5303 103.313 57.6875 103.673C56.8494 104.028 55.8385 104.206 54.6548 104.206C53.4806 104.206 52.4579 104.026 51.5866 103.666C50.7202 103.306 50.0431 102.774 49.5554 102.068C49.0724 101.358 48.8191 100.48 48.7955 99.4332H51.7713C51.8045 99.9209 51.9441 100.328 52.1903 100.655C52.4413 100.977 52.7751 101.221 53.1918 101.386C53.6132 101.547 54.089 101.628 54.6193 101.628C55.1402 101.628 55.5923 101.552 55.9759 101.401C56.3641 101.249 56.6648 101.038 56.8778 100.768C57.0909 100.499 57.1974 100.188 57.1974 99.8381C57.1974 99.5114 57.1004 99.2367 56.9062 99.0142C56.7169 98.7917 56.4375 98.6023 56.0682 98.446C55.7036 98.2898 55.2562 98.1477 54.7259 98.0199L53.142 97.6222C51.9157 97.3239 50.9474 96.8575 50.2372 96.223C49.527 95.5885 49.1742 94.7339 49.179 93.6591C49.1742 92.7784 49.4086 92.009 49.8821 91.3509C50.3603 90.6927 51.0161 90.179 51.8494 89.8097C52.6828 89.4403 53.6297 89.2557 54.6903 89.2557C55.7699 89.2557 56.7121 89.4403 57.517 89.8097C58.3267 90.179 58.9564 90.6927 59.4062 91.3509C59.8561 92.009 60.0881 92.7713 60.1023 93.6378H57.1548ZM72.4957 104.199C71.7476 104.194 71.0256 104.069 70.3295 103.822C69.6383 103.576 69.018 103.176 68.4688 102.622C67.9195 102.068 67.4839 101.334 67.1619 100.42C66.8447 99.5066 66.6861 98.3845 66.6861 97.054C66.6908 95.8324 66.8305 94.741 67.1051 93.7798C67.3845 92.8139 67.7822 91.9948 68.2983 91.3224C68.8191 90.6501 69.4418 90.1387 70.1662 89.7884C70.8906 89.4332 71.7027 89.2557 72.6023 89.2557C73.5729 89.2557 74.4299 89.4451 75.1733 89.8239C75.9167 90.1979 76.5133 90.7069 76.9631 91.3509C77.4176 91.9948 77.6922 92.7169 77.7869 93.517H74.7543C74.6359 93.0104 74.3873 92.6127 74.0085 92.3239C73.6297 92.035 73.161 91.8906 72.6023 91.8906C71.6553 91.8906 70.9356 92.3026 70.4432 93.1264C69.9555 93.9503 69.7069 95.0701 69.6974 96.4858H69.7969C70.0147 96.0549 70.3082 95.688 70.6776 95.3849C71.0516 95.0772 71.4754 94.8428 71.9489 94.6818C72.4271 94.5161 72.9313 94.4332 73.4616 94.4332C74.3234 94.4332 75.0904 94.6368 75.7628 95.044C76.4351 95.4465 76.9654 96.0005 77.3537 96.706C77.742 97.4115 77.9361 98.2187 77.9361 99.1278C77.9361 100.113 77.7064 100.989 77.2472 101.756C76.7926 102.523 76.1558 103.124 75.3366 103.56C74.5223 103.991 73.5753 104.204 72.4957 104.199ZM72.4815 101.784C72.955 101.784 73.3788 101.67 73.7528 101.443C74.1269 101.216 74.4205 100.908 74.6335 100.52C74.8466 100.132 74.9531 99.696 74.9531 99.2131C74.9531 98.7301 74.8466 98.2969 74.6335 97.9134C74.4252 97.5298 74.1364 97.2244 73.767 96.9972C73.3977 96.7699 72.9763 96.6562 72.5028 96.6562C72.1477 96.6562 71.8187 96.7225 71.5156 96.8551C71.2173 96.9877 70.9545 97.1723 70.7273 97.4091C70.5047 97.6458 70.3295 97.9205 70.2017 98.233C70.0739 98.5407 70.0099 98.8698 70.0099 99.2202C70.0099 99.6889 70.1165 100.117 70.3295 100.506C70.5473 100.894 70.8409 101.204 71.2102 101.436C71.5843 101.668 72.008 101.784 72.4815 101.784ZM85.8196 104.32C84.598 104.315 83.5469 104.014 82.6662 103.418C81.7902 102.821 81.1155 101.957 80.642 100.825C80.1733 99.6937 79.9413 98.3324 79.946 96.7415C79.946 95.1553 80.1804 93.8035 80.6491 92.6861C81.1226 91.5687 81.7973 90.7187 82.6733 90.1364C83.554 89.5492 84.6027 89.2557 85.8196 89.2557C87.0365 89.2557 88.0829 89.5492 88.9588 90.1364C89.8395 90.7235 90.5166 91.5758 90.9901 92.6932C91.4635 93.8059 91.6979 95.1553 91.6932 96.7415C91.6932 98.3371 91.4564 99.7008 90.983 100.832C90.5142 101.964 89.8419 102.828 88.9659 103.425C88.09 104.021 87.0412 104.32 85.8196 104.32ZM85.8196 101.77C86.6529 101.77 87.3182 101.351 87.8153 100.513C88.3125 99.6747 88.5587 98.4176 88.554 96.7415C88.554 95.6383 88.4403 94.7197 88.2131 93.9858C87.9905 93.2519 87.6733 92.7003 87.2614 92.331C86.8542 91.9616 86.3736 91.777 85.8196 91.777C84.991 91.777 84.3281 92.1913 83.831 93.0199C83.3338 93.8485 83.0829 95.089 83.0781 96.7415C83.0781 97.8589 83.1894 98.7917 83.4119 99.5398C83.6392 100.283 83.9588 100.842 84.3707 101.216C84.7827 101.585 85.2656 101.77 85.8196 101.77ZM99.5891 104.32C98.3675 104.315 97.3164 104.014 96.4357 103.418C95.5598 102.821 94.8851 101.957 94.4116 100.825C93.9428 99.6937 93.7108 98.3324 93.7156 96.7415C93.7156 95.1553 93.9499 93.8035 94.4187 92.6861C94.8922 91.5687 95.5669 90.7187 96.4428 90.1364C97.3235 89.5492 98.3723 89.2557 99.5891 89.2557C100.806 89.2557 101.852 89.5492 102.728 90.1364C103.609 90.7235 104.286 91.5758 104.76 92.6932C105.233 93.8059 105.467 95.1553 105.463 96.7415C105.463 98.3371 105.226 99.7008 104.752 100.832C104.284 101.964 103.611 102.828 102.735 103.425C101.859 104.021 100.811 104.32 99.5891 104.32ZM99.5891 101.77C100.422 101.77 101.088 101.351 101.585 100.513C102.082 99.6747 102.328 98.4176 102.324 96.7415C102.324 95.6383 102.21 94.7197 101.983 93.9858C101.76 93.2519 101.443 92.7003 101.031 92.331C100.624 91.9616 100.143 91.777 99.5891 91.777C98.7605 91.777 98.0977 92.1913 97.6005 93.0199C97.1033 93.8485 96.8524 95.089 96.8477 96.7415C96.8477 97.8589 96.9589 98.7917 97.1815 99.5398C97.4087 100.283 97.7283 100.842 98.1403 101.216C98.5522 101.585 99.0352 101.77 99.5891 101.77ZM113.359 104.32C112.137 104.315 111.086 104.014 110.205 103.418C109.329 102.821 108.655 101.957 108.181 100.825C107.712 99.6937 107.48 98.3324 107.485 96.7415C107.485 95.1553 107.719 93.8035 108.188 92.6861C108.662 91.5687 109.336 90.7187 110.212 90.1364C111.093 89.5492 112.142 89.2557 113.359 89.2557C114.576 89.2557 115.622 89.5492 116.498 90.1364C117.379 90.7235 118.056 91.5758 118.529 92.6932C119.003 93.8059 119.237 95.1553 119.232 96.7415C119.232 98.3371 118.996 99.7008 118.522 100.832C118.053 101.964 117.381 102.828 116.505 103.425C115.629 104.021 114.58 104.32 113.359 104.32ZM113.359 101.77C114.192 101.77 114.857 101.351 115.354 100.513C115.852 99.6747 116.098 98.4176 116.093 96.7415C116.093 95.6383 115.979 94.7197 115.752 93.9858C115.53 93.2519 115.212 92.7003 114.8 92.331C114.393 91.9616 113.913 91.777 113.359 91.777C112.53 91.777 111.867 92.1913 111.37 93.0199C110.873 93.8485 110.622 95.089 110.617 96.7415C110.617 97.8589 110.728 98.7917 110.951 99.5398C111.178 100.283 111.498 100.842 111.91 101.216C112.322 101.585 112.805 101.77 113.359 101.77ZM122.636 104.185C122.167 104.185 121.765 104.019 121.429 103.688C121.097 103.351 120.931 102.949 120.931 102.48C120.931 102.016 121.097 101.618 121.429 101.287C121.765 100.955 122.167 100.79 122.636 100.79C123.091 100.79 123.488 100.955 123.829 101.287C124.17 101.618 124.341 102.016 124.341 102.48C124.341 102.793 124.26 103.079 124.099 103.339C123.943 103.595 123.737 103.801 123.481 103.957C123.225 104.109 122.944 104.185 122.636 104.185ZM131.308 89.4545V104H128.233V92.3736H128.147L124.816 94.4616V91.7344L128.417 89.4545H131.308ZM140.141 104.199C139.081 104.199 138.136 104.017 137.308 103.652C136.484 103.283 135.833 102.776 135.354 102.132C134.881 101.483 134.637 100.735 134.623 99.8878H137.719C137.738 100.243 137.854 100.555 138.067 100.825C138.285 101.09 138.574 101.296 138.934 101.443C139.294 101.59 139.699 101.663 140.148 101.663C140.617 101.663 141.031 101.58 141.391 101.415C141.751 101.249 142.033 101.019 142.237 100.726C142.44 100.432 142.542 100.094 142.542 99.7102C142.542 99.322 142.433 98.9787 142.215 98.6804C142.002 98.3774 141.694 98.1406 141.292 97.9702C140.894 97.7997 140.421 97.7145 139.871 97.7145H138.515V95.456H139.871C140.335 95.456 140.745 95.3755 141.1 95.2145C141.46 95.0535 141.739 94.831 141.938 94.5469C142.137 94.258 142.237 93.9219 142.237 93.5384C142.237 93.1738 142.149 92.8542 141.974 92.5795C141.803 92.3002 141.562 92.0824 141.249 91.9261C140.942 91.7699 140.582 91.6918 140.17 91.6918C139.753 91.6918 139.372 91.7675 139.026 91.919C138.681 92.0658 138.404 92.2765 138.195 92.5511C137.987 92.8258 137.876 93.1477 137.862 93.517H134.914C134.928 92.679 135.167 91.9403 135.631 91.3011C136.095 90.6619 136.72 90.1624 137.506 89.8026C138.297 89.438 139.19 89.2557 140.184 89.2557C141.188 89.2557 142.066 89.438 142.819 89.8026C143.572 90.1671 144.156 90.6596 144.573 91.2798C144.995 91.8954 145.203 92.5866 145.198 93.3537C145.203 94.1681 144.95 94.8475 144.438 95.392C143.932 95.9366 143.271 96.2822 142.457 96.429V96.5426C143.527 96.6799 144.341 97.0516 144.9 97.6577C145.463 98.259 145.743 99.0118 145.738 99.9162C145.743 100.745 145.504 101.481 145.021 102.125C144.542 102.769 143.882 103.276 143.039 103.645C142.196 104.014 141.23 104.199 140.141 104.199Z" fill="#2D465A"/>
</svg>
